<svg width="20" height="20" viewBox="0 0 20 20" fill="none" xmlns="http://www.w3.org/2000/svg">
<path d="M17.5 10C17.5 11.4649 17.0711 12.8977 16.2661 14.1216C15.4611 15.3455 14.3153 16.3069 12.9701 16.887C11.625 17.4671 10.1394 17.6406 8.69683 17.3861C7.25421 17.1316 5.91772 16.4601 4.85234 15.4547C4.79263 15.3983 4.74462 15.3306 4.71105 15.2556C4.67748 15.1807 4.65901 15.0998 4.65668 15.0177C4.65436 14.9356 4.66824 14.8538 4.69752 14.777C4.7268 14.7003 4.77092 14.63 4.82734 14.5703C4.9413 14.4497 5.0985 14.3793 5.26435 14.3747C5.34648 14.3723 5.42825 14.3862 5.50501 14.4155C5.58177 14.4448 5.65201 14.4889 5.71172 14.5453C6.60527 15.3883 7.72742 15.9493 8.93796 16.1581C10.1485 16.367 11.3938 16.2145 12.5181 15.7197C13.6425 15.2249 14.5961 14.4097 15.2598 13.376C15.9236 12.3423 16.2679 11.1359 16.25 9.90765C16.232 8.67935 15.8524 7.48358 15.1587 6.46976C14.465 5.45594 13.488 4.66902 12.3496 4.20734C11.2112 3.74566 9.96203 3.62968 8.75812 3.87389C7.5542 4.11811 6.44895 4.71169 5.58047 5.58047C5.31341 5.85134 5.05087 6.12664 4.79297 6.40625L6.06719 7.68281C6.1547 7.77022 6.2143 7.88163 6.23846 8.00293C6.26261 8.12424 6.25023 8.24998 6.20289 8.36424C6.15554 8.47851 6.07536 8.57616 5.97249 8.64483C5.86962 8.7135 5.74869 8.7501 5.625 8.75H2.5C2.33424 8.75 2.17527 8.68415 2.05806 8.56694C1.94085 8.44973 1.875 8.29076 1.875 8.125V5C1.8749 4.87632 1.91151 4.75538 1.98017 4.65251C2.04884 4.54964 2.14649 4.46946 2.26076 4.42211C2.37502 4.37477 2.50076 4.36239 2.62207 4.38654C2.74337 4.4107 2.85478 4.47031 2.94219 4.55781L3.90625 5.52344C4.15781 5.25078 4.41719 4.97656 4.69219 4.69922C5.74069 3.64893 7.07723 2.93331 8.53262 2.64295C9.98801 2.35259 11.4968 2.50054 12.8681 3.06807C14.2394 3.6356 15.4114 4.59719 16.236 5.83115C17.0605 7.0651 17.5004 8.51593 17.5 10ZM10 5.625C9.83424 5.625 9.67527 5.69085 9.55806 5.80806C9.44085 5.92527 9.375 6.08424 9.375 6.25V10C9.37497 10.1079 9.40287 10.214 9.45599 10.3079C9.50911 10.4018 9.58563 10.4804 9.67812 10.5359L12.8031 12.4109C12.8735 12.4532 12.9515 12.4812 13.0327 12.4933C13.1139 12.5054 13.1967 12.5014 13.2764 12.4816C13.356 12.4617 13.431 12.4263 13.497 12.3775C13.563 12.3286 13.6187 12.2673 13.6609 12.1969C13.7032 12.1265 13.7312 12.0485 13.7433 11.9673C13.7554 11.8861 13.7514 11.8033 13.7316 11.7236C13.7117 11.644 13.6763 11.569 13.6275 11.503C13.5786 11.4371 13.5173 11.3813 13.4469 11.3391L10.625 9.64609V6.25C10.625 6.08424 10.5592 5.92527 10.4419 5.80806C10.3247 5.69085 10.1658 5.625 10 5.625Z" fill="white"/>
</svg>
