<svg width="20" height="20" viewBox="0 0 20 20" fill="none" xmlns="http://www.w3.org/2000/svg">
<path d="M5.83329 10H14.1666M15 5.83333H15.0075M5.66663 15C5.66663 15 6.33329 16.5625 4.99996 17.5M14.3333 15C14.3333 15 13.6666 16.5625 15 17.5M9.99996 15V17.5M13.3333 2.5C15.2825 2.5 16.2566 2.5 16.9683 2.94667C17.3395 3.17987 17.6534 3.49376 17.8866 3.865C18.3333 4.57667 18.3333 5.55 18.3333 7.5C18.3333 9.45 18.3333 10.4233 17.8858 11.135C17.653 11.5058 17.3397 11.8193 16.9691 12.0525C16.2558 12.5 15.2816 12.5 13.3333 12.5H6.66663C4.71746 12.5 3.74329 12.5 3.03163 12.0525C2.66057 11.8198 2.34669 11.5065 2.11329 11.1358C1.66663 10.4225 1.66663 9.44833 1.66663 7.5C1.66663 5.55167 1.66663 4.57667 2.11329 3.865C2.3465 3.49376 2.66039 3.17987 3.03163 2.94667C3.74329 2.5 4.71663 2.5 6.66663 2.5H13.3333Z" stroke="white" stroke-width="1.5" stroke-linecap="round" stroke-linejoin="round"/>
</svg>
