<svg width="47" height="40" viewBox="0 0 47 40" fill="none" xmlns="http://www.w3.org/2000/svg">
<path d="M0.79756 8.22941C0.931039 7.65921 1.03212 7.07864 1.20318 6.5188C2.4019 2.61422 6.00713 -0.0359175 10.0517 0.000368024C14.104 0.0353576 17.6639 2.74252 18.803 6.65617C19.1554 7.86785 19.1386 7.89506 17.914 8.21904C15.6902 8.80868 13.4677 9.40221 11.2439 9.99444C11.1039 10.032 10.9653 10.0787 10.7864 10.1331C11.4849 12.7418 12.1783 15.331 12.8819 17.9526H13.4275C17.6833 17.9526 21.9391 17.9578 26.1948 17.9436C26.651 17.9423 26.9581 18.0732 27.2406 18.4451C28.4264 20.0105 29.6368 21.5592 30.8588 23.0987C30.9832 23.2555 31.2346 23.3929 31.4303 23.3981C32.55 23.4266 33.6697 23.4123 34.8438 23.4123C34.8438 23.2231 34.8438 23.065 34.8438 22.9082C34.8438 20.8542 34.8373 18.8002 34.8463 16.7461C34.8515 15.4813 35.7574 14.4174 36.9379 14.2593C38.2352 14.0843 39.3989 14.836 39.754 16.0917C39.8123 16.299 39.868 16.5543 39.7993 16.7397C39.7254 16.9379 39.5272 17.1738 39.338 17.2269C39.0529 17.3047 38.8468 17.087 38.7755 16.7902C38.7548 16.7047 38.7613 16.614 38.7509 16.5258C38.6654 15.782 38.0991 15.3064 37.3112 15.3142C36.5375 15.3219 35.9569 15.8299 35.9181 16.5738C35.8896 17.1038 35.9103 17.6377 35.9077 18.169C35.9077 18.2701 35.9077 18.3712 35.9077 18.5073H41.2145C41.2145 17.8956 41.2028 17.2814 41.217 16.6684C41.2443 15.5241 41.979 14.5975 43.0728 14.3046C44.4542 13.9353 45.9808 14.928 46.1791 16.334C46.2037 16.5051 46.2283 16.7215 46.148 16.8524C46.0469 17.0183 45.8305 17.2295 45.6776 17.2191C45.4936 17.2062 45.3108 16.995 45.1566 16.8394C45.1009 16.7824 45.1346 16.6412 45.1216 16.5388C45.0218 15.7548 44.427 15.2766 43.6002 15.3155C42.833 15.3517 42.2888 15.874 42.2836 16.6476C42.2693 18.8339 42.2771 21.0214 42.2784 23.2076C42.2784 23.2633 42.2978 23.319 42.316 23.4201C43.0158 23.4201 43.7065 23.4201 44.3972 23.4201C44.6979 23.4201 44.9635 23.4849 45.0413 23.8309C45.1255 24.2054 44.9026 24.4711 44.4711 24.4775C43.7635 24.4892 43.0572 24.4814 42.3017 24.4814C42.2914 24.6693 42.2758 24.8249 42.2758 24.9804C42.2732 26.0145 42.2758 27.0486 42.2732 28.0828C42.2732 28.215 42.3082 28.3925 42.2382 28.4703C42.0879 28.6374 41.8715 28.8694 41.6978 28.8577C41.5281 28.8461 41.265 28.5804 41.2378 28.3977C41.1717 27.9376 41.2158 27.4607 41.2158 26.9605H35.9051C35.9051 27.3791 35.9103 27.8016 35.9051 28.224C35.8986 28.6659 35.712 28.8927 35.3686 28.8914C35.0265 28.8901 34.845 28.6659 34.8438 28.2188C34.8399 26.9942 34.8438 25.7696 34.8438 24.484H34.3383C25.5624 24.484 16.7865 24.484 8.0106 24.484C7.03608 24.484 6.06155 24.484 5.08703 24.484C4.52071 24.484 4.29004 24.322 4.29782 23.9449C4.30689 23.5769 4.54404 23.4227 5.11165 23.4201C5.70258 23.4188 6.29352 23.4292 6.88446 23.4136C7.03349 23.4097 7.23176 23.3734 7.31988 23.2749C8.12335 22.3704 8.90867 21.449 9.71991 20.5082C9.45814 20.2062 9.21062 19.9172 8.95792 19.6321C7.62701 18.1263 6.29741 16.6204 4.96132 15.1185C4.76564 14.8982 4.55441 14.6403 4.75527 14.3811C4.89005 14.2087 5.1894 14.0947 5.42137 14.0817C6.30648 14.0312 7.19418 14.0416 8.07929 14.0118C8.43566 14.0001 8.68966 14.118 8.90997 14.407C9.71473 15.4645 10.5402 16.5077 11.3592 17.5548C11.4538 17.6766 11.5614 17.7893 11.7519 17.8632C11.091 15.3945 10.4301 12.9258 9.7549 10.4001C9.15749 10.5556 8.59247 10.6994 8.02875 10.8497C6.0473 11.3759 4.06714 11.9046 2.08699 12.4308C1.54141 12.5759 1.3548 12.4852 1.21225 11.937C1.05285 11.3266 0.933631 10.7059 0.796265 10.0903C0.796265 9.46959 0.796265 8.84885 0.796265 8.22811L0.79756 8.22941ZM8.64042 23.3916H29.7223C29.1106 22.605 28.5495 21.8715 27.9676 21.1548C27.8938 21.0641 27.7072 21.0317 27.5724 21.0317C22.0505 21.0252 16.5286 21.0252 11.0055 21.0317C10.8668 21.0317 10.6776 21.0525 10.5985 21.1406C9.95188 21.8598 9.32596 22.5985 8.64042 23.3916ZM7.95747 1.52436C7.82918 1.75244 7.73846 1.90277 7.65682 2.05957C6.79504 3.72223 6.12246 5.44579 5.9825 7.33523C5.90993 8.31882 6.03175 9.27132 6.51901 10.1642C8.85295 9.53828 11.1545 8.92142 13.5299 8.28384C12.9688 4.9352 10.4936 3.24663 7.95747 1.52436ZM17.8129 7.13695C17.3269 5.04276 15.8159 3.11444 13.8318 2.0492C12.4439 1.30405 10.9653 0.977485 9.45943 1.08764C10.5273 2.07383 11.6469 3.01336 12.6513 4.06176C13.688 5.14255 14.3437 6.46308 14.5433 8.01169C15.6604 7.71234 16.7243 7.42853 17.8129 7.13695ZM6.52419 1.8613C2.61313 3.69631 1.13838 8.14388 2.20103 11.3227C3.27534 11.0325 4.34965 10.7422 5.42915 10.4506C4.24469 7.37799 5.28271 4.63973 6.52419 1.8613ZM26.9802 19.9626C26.6614 19.2161 26.191 18.9894 25.4328 18.9971C20.8712 19.0386 16.3096 19.014 11.748 19.0244C11.3243 19.0244 11.0353 18.8961 10.7774 18.55C9.98168 17.4874 9.15489 16.4468 8.3307 15.4049C8.22832 15.2753 8.07799 15.1094 7.93803 15.0977C7.46243 15.0602 6.98165 15.0835 6.37905 15.0835C6.5553 15.2986 6.63305 15.3997 6.71728 15.4943C7.93026 16.8654 9.14971 18.2313 10.351 19.6114C10.5752 19.868 10.802 19.9704 11.1441 19.9704C16.2669 19.96 21.3909 19.9626 26.5136 19.9626H26.9802ZM35.9245 20.9669H41.1756V19.636H35.9245V20.9669ZM41.1898 22.084H35.9362V23.3721H41.1898V22.084ZM35.9284 25.8305H41.1859V24.5553H35.9284V25.8305Z" fill="white"/>
<path d="M42.4119 35.6652C41.7562 35.4591 41.0201 35.3775 40.4603 35.0211C38.9298 34.0479 37.4524 34.193 35.9958 35.0574C35.2144 35.5213 34.6325 35.5343 33.8057 35.0302C32.0679 33.9688 30.2614 34.18 28.5975 35.3127C28.1219 35.6354 27.7525 35.6418 27.321 35.3269C27.2018 35.2401 27.0709 35.1714 26.9465 35.0898C25.6428 34.2371 24.2523 34.0906 22.8009 34.6232C22.2359 34.8306 21.6851 35.0911 21.1551 35.3788C20.8 35.5719 20.5214 35.5706 20.1715 35.3645C18.8276 34.5766 17.3943 34.1399 15.8146 34.377C15.1498 34.4768 14.5718 34.7489 14.1494 35.2906C13.8733 35.6444 13.5714 35.6315 13.2254 35.3943C12.4128 34.8397 11.5394 34.4146 10.5623 34.25C9.67588 34.101 8.88278 34.2371 8.2102 34.9369C7.34713 35.8362 5.21924 35.6496 4.42873 34.6505C4.22268 34.39 4.08143 34.0932 4.36264 33.8185C4.65422 33.5347 4.94451 33.6461 5.21406 33.9092C5.77 34.4522 6.41925 34.6323 7.16311 34.3446C7.28492 34.298 7.41322 34.2332 7.50004 34.1412C8.5264 33.0539 9.79899 32.9269 11.1364 33.2936C11.8815 33.4984 12.5774 33.882 13.2992 34.1736C13.4159 34.2202 13.609 34.2695 13.6777 34.2111C14.879 33.1952 16.2889 33.0578 17.7352 33.3533C18.6345 33.5373 19.4976 33.9157 20.3594 34.2487C20.6043 34.3433 20.7689 34.3654 21.0047 34.2397C22.3162 33.5386 23.6873 33.085 25.2074 33.3157C26.0977 33.4504 26.9128 33.7822 27.6722 34.2526C27.8912 34.3887 28.0428 34.3822 28.2657 34.25C30.382 32.9904 32.5111 32.9632 34.6312 34.2422C34.8386 34.368 34.9785 34.3563 35.1924 34.2656C35.9233 33.9546 36.6568 33.6396 37.411 33.396C38.2909 33.1109 39.154 33.2457 39.9937 33.6358C40.6067 33.9209 41.2313 34.193 41.8728 34.4029C42.592 34.6375 43.262 34.4988 43.8568 33.9895C44.3635 33.5554 44.637 33.5425 44.8715 33.8561C45.0828 34.1399 44.9571 34.5144 44.5022 34.8617C43.8983 35.3243 43.2141 35.5706 42.4132 35.6652H42.4119Z" fill="white"/>
<path d="M42.443 31.2409C41.773 31.031 41.0214 30.9519 40.4486 30.5878C38.9142 29.612 37.4356 29.7739 35.9854 30.637C35.1962 31.1074 34.6118 31.0867 33.7941 30.5943C32.0498 29.542 30.2497 29.7558 28.5858 30.8897C28.1296 31.2007 27.7758 31.2085 27.3456 30.9169C26.6834 30.4673 25.9901 30.0824 25.1827 29.945C24.1201 29.7636 23.1313 30.0228 22.1658 30.4284C21.8535 30.5593 21.5373 30.6979 21.2587 30.8871C20.8505 31.1645 20.5149 31.1334 20.0807 30.8871C18.6461 30.0746 17.1157 29.5912 15.4621 30.0487C14.993 30.1783 14.5601 30.523 14.1765 30.847C13.802 31.1645 13.6375 31.2383 13.215 30.9571C12.4076 30.4219 11.5536 29.9981 10.5921 29.8284C9.68622 29.6677 8.88534 29.805 8.19981 30.5152C7.31988 31.4249 5.14405 31.2085 4.39242 30.1834C4.20322 29.9256 4.09436 29.6405 4.36261 29.3865C4.63864 29.126 4.91208 29.2115 5.18163 29.4551C6.07451 30.2625 6.84817 30.256 7.7566 29.4655C8.74668 28.6037 9.91041 28.5286 11.0949 28.8551C11.8543 29.0651 12.5631 29.4526 13.3005 29.748C13.4158 29.7947 13.6089 29.8374 13.6789 29.7791C14.8686 28.7787 16.2604 28.6309 17.6937 28.9199C18.593 29.1014 19.4626 29.4642 20.3218 29.8063C20.603 29.9178 20.7883 29.9256 21.0462 29.7895C22.333 29.1065 23.6782 28.6711 25.1659 28.8836C26.0575 29.0119 26.8739 29.3411 27.6359 29.805C27.8627 29.9424 28.0234 29.9657 28.2683 29.8193C30.3845 28.5597 32.5098 28.5454 34.6429 29.8025C34.7841 29.8854 35.0304 29.8828 35.1911 29.8219C35.7548 29.6081 36.2939 29.3269 36.8589 29.1156C38.0265 28.6789 39.163 28.7463 40.2801 29.3385C40.7842 29.6055 41.3285 29.8115 41.8741 29.98C42.5778 30.1977 43.2477 30.0927 43.8205 29.5809C43.9307 29.4824 44.0447 29.3411 44.1717 29.323C44.3804 29.2945 44.659 29.2789 44.7964 29.3929C44.9117 29.4888 44.9311 29.796 44.878 29.9748C44.8236 30.1536 44.6434 30.3092 44.4879 30.4387C43.9657 30.8729 43.157 31.1424 42.4754 31.1347C42.4637 31.1709 42.4533 31.2059 42.4417 31.2422L42.443 31.2409Z" fill="white"/>
<path d="M42.0982 39.9948C41.7406 39.8795 40.9695 39.7771 40.3656 39.4039C38.9531 38.533 37.5755 38.5874 36.2226 39.3831C35.3102 39.9196 34.6027 39.952 33.6307 39.3766C31.9435 38.3775 30.181 38.6535 28.5832 39.7486C28.1257 40.0622 27.7836 40.044 27.3391 39.7758C26.8117 39.457 26.2674 39.1382 25.6894 38.936C24.5101 38.5239 23.3568 38.7818 22.2449 39.2561C21.8652 39.4181 21.4881 39.5957 21.1395 39.8121C20.7883 40.0298 20.4993 39.9909 20.1572 39.7836C18.996 39.0799 17.7338 38.6989 16.3679 38.7417C15.4841 38.7702 14.6819 39.0216 14.1052 39.7628C13.8564 40.0816 13.5584 40.0505 13.2461 39.838C12.4452 39.2937 11.5899 38.8674 10.6296 38.6924C9.71211 38.5265 8.89568 38.6509 8.19459 39.3754C7.31467 40.2864 5.13106 40.0596 4.3885 39.0319C4.2006 38.7715 4.09692 38.4851 4.37036 38.2362C4.65028 37.9822 4.92501 38.0756 5.19197 38.3192C6.06671 39.1149 6.86499 39.1123 7.73325 38.3438C8.74406 37.4483 9.9363 37.3835 11.1506 37.7257C11.8944 37.9356 12.589 38.3179 13.3122 38.6095C13.4249 38.6548 13.6167 38.6898 13.688 38.6289C14.9359 37.5818 16.3925 37.4885 17.8802 37.8047C18.7355 37.9861 19.5533 38.3581 20.3723 38.6833C20.6004 38.7741 20.7507 38.774 20.9788 38.6859C21.8548 38.349 22.7269 37.9628 23.638 37.7658C25.0648 37.4574 26.384 37.9136 27.6074 38.6432C27.8678 38.7987 28.0441 38.8077 28.3162 38.647C30.4078 37.4159 32.515 37.403 34.6053 38.6535C34.8437 38.7961 35.0044 38.765 35.2442 38.6691C36.0761 38.336 36.912 38.0056 37.7699 37.7529C38.5397 37.5261 39.2848 37.7451 40.004 38.0678C40.6079 38.3386 41.2144 38.6134 41.8403 38.822C42.5751 39.0656 43.2568 38.9283 43.8633 38.4034C44.3557 37.9784 44.6032 37.9654 44.8482 38.257C45.0827 38.5369 44.9713 38.914 44.519 39.2678C43.9203 39.7369 43.2373 39.987 42.0943 39.9922L42.0982 39.9948Z" fill="white"/>
<path d="M30.4389 6.29721C30.4428 7.70457 29.3231 8.84238 27.9248 8.85275C26.4967 8.86311 25.3538 7.73697 25.3499 6.31406C25.346 4.88855 26.4838 3.75204 27.908 3.75852C29.3154 3.76629 30.4337 4.88855 30.4389 6.29591V6.29721ZM27.8886 7.7888C28.7542 7.7901 29.3542 7.1862 29.3555 6.31146C29.3581 5.42895 28.7685 4.82635 27.9002 4.82376C27.0358 4.82117 26.4281 5.43024 26.4268 6.2998C26.4242 7.16806 27.0333 7.78751 27.8886 7.7901V7.7888Z" fill="white"/>
<path d="M28.4705 2.33171C28.4459 2.53906 28.4601 2.84878 28.3564 3.11444C28.2929 3.27773 28.0493 3.46823 27.8886 3.46693C27.7266 3.46434 27.4441 3.25181 27.4299 3.10926C27.3716 2.5572 27.3664 1.99348 27.4156 1.44142C27.4286 1.30146 27.724 1.07857 27.8783 1.08893C28.0597 1.1006 28.3072 1.2885 28.3824 1.46216C28.4822 1.69153 28.4433 1.98182 28.4705 2.33431V2.33171Z" fill="white"/>
<path d="M28.4717 10.3664C28.4471 10.5841 28.4614 10.8938 28.3616 11.1595C28.2994 11.324 28.0544 11.534 27.908 11.5223C27.7305 11.5081 27.4428 11.2955 27.4246 11.1439C27.3611 10.6074 27.3611 10.0579 27.4117 9.52014C27.4259 9.375 27.7084 9.14821 27.8626 9.1534C28.0441 9.15858 28.3007 9.33742 28.3784 9.50718C28.4821 9.73397 28.4432 10.0255 28.473 10.3664H28.4717Z" fill="white"/>
<path d="M31.7517 9.63547C31.7517 10.0307 31.3292 10.3223 31.0428 10.0968C30.5854 9.73655 30.1745 9.3089 29.7936 8.86699C29.7145 8.77628 29.7858 8.44712 29.8972 8.32919C30.01 8.20997 30.3482 8.11407 30.4298 8.18534C30.8886 8.59096 31.3007 9.04842 31.7232 9.49421C31.7569 9.5305 31.7478 9.60696 31.753 9.63417L31.7517 9.63547Z" fill="white"/>
<path d="M32.0057 6.87648C31.7271 6.85445 31.4472 6.84408 31.1711 6.8065C30.8873 6.76892 30.6696 6.58749 30.7267 6.30887C30.7642 6.12355 30.9729 5.8566 31.1336 5.83586C31.6532 5.76718 32.191 5.75292 32.712 5.81124C32.8727 5.82938 33.0865 6.13133 33.1215 6.3309C33.1669 6.59008 32.9751 6.80002 32.6718 6.82205C32.4515 6.8376 32.2299 6.84408 32.0096 6.85445C32.0096 6.86222 32.0096 6.87 32.0083 6.87777L32.0057 6.87648Z" fill="white"/>
<path d="M26.06 3.92179C26.0717 4.30927 25.6375 4.62029 25.3524 4.40128C24.8911 4.0462 24.4803 3.61855 24.0954 3.17924C24.0138 3.08593 24.076 2.74381 24.1874 2.64014C24.317 2.51832 24.6682 2.42242 24.7602 2.50277C25.2099 2.89543 25.6051 3.349 26.0159 3.78702C26.0522 3.8246 26.0522 3.89588 26.0613 3.92309L26.06 3.92179Z" fill="white"/>
<path d="M23.9374 6.87906C23.6445 6.85314 23.3309 6.88295 23.0652 6.78317C22.889 6.71707 22.6907 6.47603 22.6739 6.2972C22.6596 6.15206 22.8877 5.86047 23.0302 5.84492C23.581 5.78402 24.1434 5.77106 24.6942 5.82419C24.8367 5.83715 25.0311 6.14428 25.057 6.33478C25.092 6.60044 24.9028 6.80131 24.6009 6.82204C24.3806 6.83759 24.159 6.84407 23.9387 6.85444L23.9361 6.87906H23.9374Z" fill="white"/>
<path d="M25.5184 8.14388C25.8968 8.14129 26.2065 8.5495 26.003 8.81386C25.6402 9.28558 25.2047 9.70934 24.7577 10.1046C24.6656 10.1862 24.3326 10.1201 24.216 10.0113C24.0967 9.89984 24.006 9.56031 24.0799 9.47608C24.4842 9.01603 24.9404 8.60393 25.3836 8.18017C25.4199 8.14518 25.495 8.15036 25.5184 8.14517V8.14388Z" fill="white"/>
<path d="M31.2075 2.45094C31.6079 2.43409 31.9202 2.84878 31.696 3.14036C31.3332 3.61078 30.8874 4.02288 30.4364 4.41165C30.3483 4.48811 30.0139 4.40517 29.9012 4.28983C29.7897 4.1745 29.7172 3.84145 29.7962 3.75074C30.1876 3.30235 30.6347 2.89932 31.0662 2.48722C31.1025 2.45223 31.1777 2.45871 31.2075 2.45223V2.45094Z" fill="white"/>
</svg>
