<svg width="20" height="20" viewBox="0 0 20 20" fill="none" xmlns="http://www.w3.org/2000/svg">
<path d="M16.2147 18.2278V9.47783C16.2147 8.59501 15.5144 7.88001 14.6213 7.88001H5.85157C4.92813 7.88001 4.2575 8.6047 4.2575 9.47751L4.255 9.47783V18.2278C4.255 19.1203 4.97813 19.815 5.85126 19.8153H14.6313C15.5038 19.8153 16.2163 19.1609 16.2147 18.2303V18.2281V18.2278ZM14.5619 18.1566H5.90782V9.55282H14.5619V18.1566ZM12.3984 1.10845C12.3888 -0.0359256 14.0447 -0.0490506 14.0541 1.10845L14.0288 4.58126L14.9194 3.49032C15.5341 2.81532 16.615 3.75626 15.9478 4.51845L13.7878 7.0897C13.4469 7.43095 13.0034 7.42907 12.6644 7.0897L10.5147 4.50876C9.84719 3.74595 10.9384 2.79532 11.5428 3.48001L12.4234 4.58126L12.3984 1.10845ZM6.38813 6.48939C6.37844 7.63376 8.03407 7.64657 8.04375 6.48939L8.01875 3.01626L8.90907 4.1072C9.52407 4.7822 10.605 3.84126 9.93782 3.07907L7.77813 0.508137C7.43688 0.166887 6.99313 0.169074 6.65438 0.508137L4.50469 3.08939C3.83688 3.85157 4.92813 4.80251 5.53282 4.11751L6.41313 3.01626L6.38844 6.48939H6.38813Z" fill="white"/>
<path d="M14.1519 14.4813C14.1522 14.5201 14.1448 14.5586 14.1302 14.5945C14.1155 14.6304 14.0939 14.6631 14.0665 14.6906C14.0391 14.7181 14.0065 14.7399 13.9706 14.7547C13.9348 14.7695 13.8963 14.7771 13.8575 14.7769H11.9197C11.8414 14.7766 11.7665 14.7453 11.7112 14.6899C11.656 14.6345 11.6248 14.5595 11.6247 14.4813V12.3753C11.6241 12.3219 11.6342 12.2689 11.6544 12.2194C11.6745 12.1699 11.7043 12.1249 11.742 12.087C11.7797 12.0491 11.8245 12.0191 11.8739 11.9987C11.9233 11.9783 11.9762 11.9679 12.0297 11.9681H13.7453C13.7988 11.9678 13.8519 11.9781 13.9014 11.9984C13.9509 12.0187 13.9958 12.0487 14.0336 12.0867C14.0714 12.1246 14.1013 12.1696 14.1215 12.2192C14.1417 12.2687 14.1518 12.3218 14.1512 12.3753V14.4813H14.1519Z" fill="white"/>
<path d="M13.6778 14.6997H12.9406V17.5478C12.9406 18.0528 13.6778 18.0528 13.6778 17.5478V14.6997ZM12.8284 14.6997H12.0909V17.5478C12.0909 18.0491 12.8284 18.0491 12.8284 17.5478V14.6997ZM13.4488 11.2437C13.4488 11.3905 13.3904 11.5313 13.2867 11.6351C13.1829 11.7389 13.0421 11.7972 12.8953 11.7972C12.7485 11.7972 12.6078 11.7389 12.504 11.6351C12.4002 11.5313 12.3419 11.3905 12.3419 11.2437C12.3419 11.097 12.4002 10.9562 12.504 10.8524C12.6078 10.7486 12.7485 10.6903 12.8953 10.6903C13.0421 10.6903 13.1829 10.7486 13.2867 10.8524C13.3904 10.9562 13.4488 11.097 13.4488 11.2437ZM11.5025 14.4812C11.5029 14.5201 11.4955 14.5586 11.4809 14.5945C11.4662 14.6305 11.4446 14.6632 11.4172 14.6907C11.3898 14.7182 11.3572 14.74 11.3213 14.7548C11.2854 14.7696 11.247 14.7771 11.2081 14.7769H9.27032C9.19204 14.7765 9.11707 14.7453 9.06176 14.6899C9.00644 14.6345 8.97525 14.5595 8.97501 14.4812V12.3753C8.97501 12.1337 9.16907 11.9681 9.38001 11.9681H11.0959C11.3272 11.9681 11.5019 12.1522 11.5019 12.3753V14.4812H11.5025Z" fill="white"/>
<path d="M11.0287 14.6997H10.2912V17.5478C10.2912 18.0528 11.0287 18.0528 11.0287 17.5478V14.6997ZM10.1797 14.6997H9.44219V17.5478C9.44219 18.0491 10.1797 18.0491 10.1797 17.5478V14.6997ZM10.7997 11.2437C10.7997 11.3905 10.7414 11.5313 10.6376 11.6351C10.5338 11.7389 10.393 11.7972 10.2462 11.7972C10.0995 11.7972 9.9587 11.7389 9.85491 11.6351C9.75112 11.5313 9.69281 11.3905 9.69281 11.2437C9.69281 11.097 9.75112 10.9562 9.85491 10.8524C9.9587 10.7486 10.0995 10.6903 10.2462 10.6903C10.393 10.6903 10.5338 10.7486 10.6376 10.8524C10.7414 10.9562 10.7997 11.097 10.7997 11.2437ZM8.85375 14.4812C8.85375 14.6559 8.71312 14.7769 8.55906 14.7769H6.62125C6.543 14.7765 6.46807 14.7453 6.4128 14.6899C6.35753 14.6345 6.32641 14.5595 6.32625 14.4812V12.3753C6.32625 12.1337 6.52 11.9681 6.73125 11.9681H8.44719C8.50071 11.9677 8.55376 11.978 8.60327 11.9984C8.65277 12.0187 8.69772 12.0487 8.73551 12.0866C8.7733 12.1245 8.80316 12.1696 8.82335 12.2191C8.84354 12.2687 8.85366 12.3218 8.85312 12.3753V14.4812H8.85375Z" fill="white"/>
<path d="M8.38 14.6997H7.6425V17.5478C7.6425 18.0528 8.38 18.0528 8.38 17.5478V14.6997ZM7.53031 14.6997H6.79312V17.5478C6.79312 18.0491 7.53031 18.0491 7.53031 17.5478V14.6997ZM8.15093 11.2437C8.15093 11.3905 8.09262 11.5313 7.98884 11.6351C7.88505 11.7389 7.74428 11.7972 7.5975 11.7972C7.45072 11.7972 7.30995 11.7389 7.20616 11.6351C7.10237 11.5313 7.04406 11.3905 7.04406 11.2437C7.04406 11.097 7.10237 10.9562 7.20616 10.8524C7.30995 10.7486 7.45072 10.6903 7.5975 10.6903C7.74428 10.6903 7.88505 10.7486 7.98884 10.8524C8.09262 10.9562 8.15093 11.097 8.15093 11.2437Z" fill="white"/>
</svg>
