<svg width="40" height="40" viewBox="0 0 40 40" fill="none" xmlns="http://www.w3.org/2000/svg">
<path d="M21.1729 39.999H18.8292C18.7292 39.9771 18.6292 39.9417 18.5271 39.9354C16.0729 39.774 13.7188 39.1885 11.5167 38.1031C5.38229 35.0792 1.62812 30.2052 0.315625 23.4802C0.166667 22.7188 0.103125 21.9417 0 21.1719C0 20.3906 0 19.6094 0 18.8281C0.0229167 18.7156 0.0583333 18.6042 0.0666666 18.4917C0.261458 15.7021 0.998958 13.0583 2.34896 10.6146C5.46042 4.98125 10.1854 1.53229 16.5156 0.315625C17.2781 0.16875 18.0573 0.103125 18.8281 0C19.6094 0 20.3906 0 21.1719 0C21.2854 0.0229167 21.3979 0.059376 21.5115 0.0677093C23.55 0.210418 25.5323 0.632293 27.4073 1.43646C34.1542 4.33021 38.2781 9.37292 39.6906 16.5958C39.8344 17.3323 39.899 18.0833 40 18.8281V21.1719C39.9771 21.2844 39.9417 21.3958 39.9333 21.5083C39.7385 24.2979 39.001 26.9417 37.651 29.3854C34.5396 35.0187 29.8146 38.4677 23.4844 39.6844C22.7219 39.8312 21.9427 39.8969 21.1719 40L21.1729 39.999ZM38.6698 19.9854C38.6646 9.7 30.3021 1.33854 20.0104 1.33021C9.71146 1.32188 1.325 9.70833 1.33333 20.0073C1.34167 30.299 9.70208 38.6615 19.9885 38.6677C30.2792 38.6729 38.676 30.276 38.6708 19.9865L38.6698 19.9854Z" fill="white"/>
<path d="M22.949 25.9167C23.0573 23.4323 23.1292 21.6635 23.2167 19.8958C23.2292 19.6438 23.1542 19.5063 22.9406 19.3635C22.0313 18.7583 21.5594 17.8906 21.4063 16.8083C21.1615 15.0698 21.5865 13.4385 22.2073 11.8594C22.6854 10.6448 23.6813 10.0188 24.9875 10.0146C26.2552 10.0115 27.2375 10.5969 27.7438 11.7708C28.3021 13.0646 28.6688 14.4198 28.6615 15.851C28.6531 17.3323 28.2823 18.6313 26.926 19.4698C26.8396 19.5229 26.7927 19.7115 26.7979 19.8344C26.8833 21.9542 26.9792 24.074 27.0729 26.1927C27.1354 27.5969 27.2177 29.001 27.2542 30.4052C27.2844 31.5531 26.5167 32.4292 25.3656 32.6333C24.3385 32.8156 23.2396 32.2198 22.8979 31.2229C22.7677 30.8438 22.7531 30.4062 22.7677 29.9979C22.8219 28.3979 22.9083 26.799 22.95 25.9156L22.949 25.9167ZM24.3292 24.8031C24.3292 24.8031 24.3281 24.8031 24.3271 24.8031C24.3031 25.349 24.2792 25.8948 24.2552 26.4417C24.1958 27.7417 24.126 29.0406 24.0813 30.3417C24.0604 30.95 24.4344 31.3188 25.0063 31.3135C25.5802 31.3083 25.9271 30.9396 25.9271 30.3323C25.9271 30.2281 25.9177 30.124 25.9135 30.0198C25.749 26.4448 25.5854 22.8708 25.4198 19.2958C25.4021 18.9177 25.5427 18.6469 25.8958 18.4823C26.0948 18.3906 26.2906 18.2813 26.4646 18.149C27.1833 17.6031 27.2948 16.8063 27.3271 15.9854C27.376 14.7229 26.999 13.5438 26.5677 12.3854C26.3125 11.7 25.7417 11.35 25.0156 11.3438C24.2885 11.3365 23.7052 11.676 23.4458 12.3594C22.9979 13.5385 22.6281 14.7458 22.6719 16.0354C22.7094 17.1344 23.0313 18.0552 24.1469 18.5125C24.4979 18.6563 24.599 18.951 24.5823 19.3073C24.4969 21.1396 24.4146 22.9729 24.3302 24.8063L24.3292 24.8031Z" fill="white"/>
<path d="M13.0302 24.8083C13.1198 22.9625 13.2031 21.1156 13.3031 19.2708C13.3177 19.0104 13.2437 18.8333 13.0593 18.6573C12.5791 18.199 12.0948 17.7417 11.6573 17.2438C11.4854 17.0479 11.3479 16.7448 11.3448 16.4885C11.3187 14.601 11.3281 12.7135 11.3323 10.826C11.3333 10.3094 11.6073 9.99167 12.0187 10.0052C12.4166 10.0177 12.6604 10.3198 12.6614 10.824C12.6645 12.5427 12.6677 14.2604 12.6573 15.9792C12.6552 16.2583 12.7198 16.4656 12.9312 16.6625C13.4166 17.1146 13.8718 17.6 14.3468 18.0625C14.5885 18.2979 14.6802 18.5708 14.6625 18.9052C14.4666 22.6615 14.275 26.4177 14.0843 30.174C14.0541 30.774 14.302 31.1563 14.7895 31.2781C15.1979 31.3802 15.6281 31.199 15.7968 30.8115C15.8771 30.6281 15.9177 30.4083 15.9073 30.2094C15.725 26.4521 15.5354 22.6958 15.3385 18.9396C15.3198 18.574 15.4208 18.2854 15.6843 18.0313C16.1531 17.5802 16.6 17.1052 17.0718 16.6573C17.2656 16.4729 17.3458 16.2844 17.3437 16.0125C17.3312 14.3073 17.3354 12.6021 17.3406 10.8969C17.3406 10.7188 17.3323 10.4896 17.4323 10.376C17.5802 10.2083 17.8323 10.0156 18.0208 10.0333C18.2291 10.0531 18.4458 10.274 18.601 10.4563C18.6854 10.5542 18.6656 10.7542 18.6656 10.9083C18.6698 12.7438 18.6625 14.5792 18.6729 16.4146C18.675 16.7802 18.5604 17.0635 18.2968 17.3146C17.8354 17.7542 17.3989 18.2208 16.9364 18.6594C16.751 18.8354 16.6833 19.0156 16.6968 19.274C16.8854 22.8875 17.0604 26.501 17.2458 30.1146C17.3375 31.9021 15.7645 33.1198 14.1604 32.4906C13.2281 32.125 12.6948 31.2208 12.7531 30.1094C12.8458 28.3417 12.9364 26.574 13.0281 24.8063L13.0302 24.8083Z" fill="white"/>
<path d="M33.3334 19.9167C33.3459 23.4219 32.099 26.6188 29.5449 29.301C29.2021 29.6604 28.8178 29.726 28.5167 29.4688C28.1949 29.1948 28.1938 28.7958 28.5605 28.4104C29.7782 27.1292 30.7355 25.6844 31.3021 24.0063C32.4876 20.4948 32.173 17.1146 30.3167 13.899C29.9928 13.3385 29.5761 12.8313 29.2074 12.2958C28.9563 11.9323 28.9917 11.5469 29.2855 11.3208C29.6011 11.0771 29.9834 11.1438 30.2751 11.5042C32.2188 13.899 33.2376 16.6385 33.3334 19.9167Z" fill="white"/>
<path d="M6.67505 19.7365C6.69901 17.1208 7.53651 14.5521 9.16151 12.2396C9.42505 11.8635 9.81463 11.776 10.1386 12.0031C10.4542 12.224 10.5136 12.6146 10.2438 13.0052C9.40838 14.2146 8.74692 15.5083 8.40526 16.9406C7.42921 21.0281 8.26776 24.6958 11 27.9115C11.1688 28.1094 11.3563 28.2927 11.5157 28.4979C11.7657 28.8187 11.7323 29.2062 11.4532 29.4396C11.1646 29.6812 10.7917 29.6729 10.5115 29.35C9.97401 28.7323 9.4188 28.1208 8.96046 27.4458C7.42713 25.1885 6.68234 22.6771 6.67609 19.7365H6.67505Z" fill="white"/>
<path d="M23.6448 7.62292C23.6521 8.12708 23.2625 8.37708 22.7458 8.31979C21.6781 8.20208 20.6073 8.0625 19.5354 8.0375C18.2927 8.00833 17.0896 8.30521 15.9167 8.71562C15.4229 8.88854 15.0708 8.7625 14.9271 8.39896C14.7771 8.02188 14.9458 7.65833 15.3698 7.50104C16.9458 6.91458 18.5813 6.62291 20.2573 6.68437C21.1865 6.71875 22.1115 6.89687 23.0365 7.02396C23.4021 7.07396 23.6063 7.30521 23.6448 7.62396V7.62292Z" fill="white"/>
<path d="M14.674 13.3594C14.674 14.1531 14.6771 14.9469 14.6709 15.7396C14.6698 15.9062 14.6594 16.0833 14.6032 16.2375C14.499 16.5219 14.273 16.6646 13.9646 16.6469C13.6553 16.6292 13.4584 16.4604 13.373 16.1687C13.3448 16.0708 13.3428 15.9625 13.3428 15.8594C13.3407 14.1687 13.3417 12.4771 13.3428 10.7865C13.3428 10.6958 13.3459 10.6021 13.3678 10.5156C13.449 10.201 13.6646 10.024 13.9813 10.0115C14.2823 9.99896 14.5136 10.15 14.6084 10.4417C14.6594 10.599 14.6698 10.774 14.6719 10.9406C14.6782 11.7469 14.675 12.5542 14.675 13.3604L14.674 13.3594Z" fill="white"/>
<path d="M16.6614 13.3406C16.6614 14.1729 16.6656 15.0063 16.6604 15.8385C16.6572 16.3604 16.4302 16.6375 16.0208 16.649C15.5958 16.6615 15.3333 16.3677 15.3312 15.8385C15.3249 14.1604 15.3218 12.4823 15.3322 10.8042C15.3364 10.1823 15.8229 9.83334 16.2999 10.0823C16.5927 10.2354 16.6635 10.499 16.6624 10.8031C16.6593 11.649 16.6624 12.4938 16.6624 13.3396L16.6614 13.3406Z" fill="white"/>
<path d="M20.0167 32.0073C20.4844 31.9802 20.926 31.949 21.3687 31.9312C21.825 31.9125 22.1135 32.1302 22.1552 32.5094C22.1969 32.8781 21.9458 33.2208 21.5094 33.2354C20.5104 33.2708 19.5094 33.2719 18.5104 33.2385C18.0677 33.224 17.826 32.8958 17.8594 32.5167C17.8927 32.1427 18.1865 31.9156 18.6385 31.9323C19.1062 31.95 19.574 31.9823 20.0156 32.0073H20.0167Z" fill="white"/>
</svg>
