<svg width="20" height="20" viewBox="0 0 20 20" fill="none" xmlns="http://www.w3.org/2000/svg">
<g clip-path="url(#clip0_162_3132)">
<path d="M2.24565 1.86485L16.6374 16.2566C16.9105 16.5297 17.0639 16.9001 17.0639 17.2863C17.0639 17.6725 16.9105 18.0429 16.6374 18.316C16.3643 18.589 15.9939 18.7423 15.6078 18.7423C15.2216 18.7423 14.8512 18.589 14.5781 18.316L11.0624 14.7398C10.8324 14.5062 10.7033 14.1916 10.7031 13.8637V13.6477C10.7031 13.4821 10.6702 13.3182 10.6064 13.1654C10.5426 13.0127 10.449 12.8741 10.3312 12.7578L9.87729 12.3387C9.7232 12.1965 9.53582 12.0954 9.3324 12.0446C9.12899 11.9938 8.91606 11.995 8.71323 12.048C8.39337 12.1315 8.05724 12.1299 7.7382 12.0434C7.41916 11.9568 7.1283 11.7884 6.89448 11.5547L3.55737 8.21719C1.57768 6.2375 0.849163 3.24805 2.24565 1.86485Z" stroke="white" stroke-linejoin="round"/>
<path d="M15.625 1.25L12.6075 4.26758C12.3752 4.49973 12.1911 4.77536 12.0654 5.07871C11.9397 5.38206 11.875 5.70719 11.875 6.03555V6.61602C11.875 6.69814 11.8589 6.77947 11.8274 6.85534C11.796 6.93122 11.7499 7.00015 11.6918 7.0582L11.25 7.5M12.5 8.75L12.9418 8.3082C12.9999 8.25011 13.0688 8.20403 13.1447 8.17259C13.2206 8.14116 13.3019 8.12499 13.384 8.125H13.9645C14.2928 8.125 14.618 8.06032 14.9213 7.93465C15.2247 7.80898 15.5003 7.62478 15.7325 7.39258L18.75 4.375M17.1875 2.8125L14.0625 5.9375M7.81253 14.375L3.91722 18.2922C3.62421 18.5851 3.22685 18.7497 2.81253 18.7497C2.39821 18.7497 2.00086 18.5851 1.70785 18.2922C1.41492 17.9992 1.25037 17.6018 1.25037 17.1875C1.25037 16.7732 1.41492 16.3758 1.70785 16.0828L5.00003 12.8125" stroke="white" stroke-linecap="round" stroke-linejoin="round"/>
</g>
<defs>
<clipPath id="clip0_162_3132">
<rect width="20" height="20" fill="white"/>
</clipPath>
</defs>
</svg>
