<svg width="20" height="20" viewBox="0 0 20 20" fill="none" xmlns="http://www.w3.org/2000/svg">
<g clip-path="url(#clip0_162_3137)">
<path fill-rule="evenodd" clip-rule="evenodd" d="M7.91667 4.16667C7.58515 4.16667 7.26721 4.29836 7.03279 4.53278C6.79837 4.7672 6.66667 5.08515 6.66667 5.41667V8.33333H12.5V5.41667C12.5 4.64312 12.8073 3.90125 13.3543 3.35427C13.9013 2.80729 14.6431 2.5 15.4167 2.5C16.1902 2.5 16.9321 2.80729 17.4791 3.35427C18.026 3.90125 18.3333 4.64312 18.3333 5.41667C18.3331 5.62907 18.2518 5.83336 18.106 5.98781C17.9602 6.14225 17.7609 6.2352 17.5488 6.24764C17.3368 6.26009 17.128 6.1911 16.9651 6.05478C16.8023 5.91845 16.6976 5.72508 16.6725 5.51417L16.6667 5.41667C16.6667 5.08515 16.535 4.7672 16.3006 4.53278C16.0661 4.29836 15.7482 4.16667 15.4167 4.16667C15.0851 4.16667 14.7672 4.29836 14.5328 4.53278C14.2984 4.7672 14.1667 5.08515 14.1667 5.41667V12.5C14.1661 12.6206 14.1425 12.7325 14.0958 12.8358C14.2399 12.9142 14.4038 12.9483 14.5672 12.934C14.7306 12.9196 14.886 12.8573 15.0142 12.755L16.1458 11.8492C16.2313 11.7808 16.3294 11.7299 16.4345 11.6994C16.5397 11.6689 16.6498 11.6594 16.7586 11.6715C16.8674 11.6836 16.9727 11.717 17.0686 11.7697C17.1645 11.8225 17.2491 11.8937 17.3175 11.9792C17.3859 12.0646 17.4368 12.1627 17.4673 12.2679C17.4978 12.373 17.5072 12.4831 17.4952 12.5919C17.4831 12.7007 17.4497 12.8061 17.3969 12.902C17.3441 12.9979 17.273 13.0824 17.1875 13.1508L16.0558 14.0558C15.6416 14.3873 15.1327 14.5784 14.6026 14.6014C14.0726 14.6245 13.549 14.4784 13.1075 14.1842L12.635 13.8692C12.4878 13.7709 12.3132 13.7221 12.1364 13.7297C11.9596 13.7374 11.7898 13.8011 11.6517 13.9117L11.5617 13.9842C11.1184 14.3388 10.5677 14.5319 10 14.5319C9.43236 14.5319 8.88161 14.3388 8.43834 13.9842L8.3475 13.9117C8.20925 13.8012 8.03944 13.7376 7.86265 13.7302C7.68585 13.7227 7.51127 13.7716 7.36417 13.87L6.89334 14.1842C6.45178 14.4786 5.92799 14.6248 5.39779 14.6018C4.86759 14.5787 4.35848 14.3875 3.94417 14.0558L2.8125 13.1508C2.63989 13.0127 2.52922 12.8117 2.50484 12.5919C2.48046 12.3722 2.54437 12.1518 2.6825 11.9792C2.82064 11.8066 3.02168 11.6959 3.24141 11.6715C3.46114 11.6471 3.68156 11.711 3.85417 11.8492L5 12.7667V5.41667C5 5.03364 5.07544 4.65437 5.22202 4.30051C5.3686 3.94664 5.58344 3.62511 5.85428 3.35427C6.12511 3.08343 6.44664 2.86859 6.80051 2.72202C7.15438 2.57544 7.53365 2.5 7.91667 2.5C8.29969 2.5 8.67896 2.57544 9.03283 2.72202C9.3867 2.86859 9.70823 3.08343 9.97906 3.35427C10.2499 3.62511 10.4647 3.94664 10.6113 4.30051C10.7579 4.65437 10.8333 5.03364 10.8333 5.41667C10.8331 5.62907 10.7518 5.83336 10.606 5.98781C10.4602 6.14225 10.2609 6.2352 10.0488 6.24764C9.83681 6.26009 9.62802 6.1911 9.46514 6.05478C9.30227 5.91845 9.19759 5.72508 9.1725 5.51417L9.16667 5.41667C9.16667 5.08515 9.03497 4.7672 8.80055 4.53278C8.56613 4.29836 8.24819 4.16667 7.91667 4.16667ZM12.5 12.0842V10H6.66667V12.3483C7.09691 12.1229 7.58351 12.0276 8.067 12.0743C8.55049 12.1209 9.00993 12.3073 9.38917 12.6108L9.47917 12.6833C9.62697 12.8017 9.81067 12.8661 10 12.8661C10.1893 12.8661 10.373 12.8017 10.5208 12.6833L10.6108 12.6108C10.8739 12.4001 11.1769 12.2447 11.5015 12.1541C11.8262 12.0634 12.1658 12.0394 12.5 12.0833V12.0842ZM15.0142 16.0883C14.8759 16.1988 14.7061 16.2624 14.5293 16.2698C14.3525 16.2773 14.1779 16.2284 14.0308 16.13L13.56 15.8158C13.1184 15.5214 12.5947 15.3752 12.0645 15.3982C11.5343 15.4213 11.0252 15.6125 10.6108 15.9442L10.5208 16.0167C10.373 16.135 10.1893 16.1995 10 16.1995C9.81067 16.1995 9.62697 16.135 9.47917 16.0167L9.38917 15.9442C8.97493 15.6127 8.46599 15.4216 7.93596 15.3986C7.40593 15.3755 6.88231 15.5216 6.44084 15.8158L5.96834 16.1308C5.82115 16.2291 5.64652 16.2779 5.46972 16.2703C5.29293 16.2626 5.12316 16.1989 4.985 16.0883L3.85417 15.1825C3.68156 15.0444 3.46114 14.9805 3.24141 15.0048C3.02168 15.0292 2.82064 15.1399 2.6825 15.3125C2.54437 15.4851 2.48046 15.7055 2.50484 15.9253C2.52922 16.145 2.63989 16.346 2.8125 16.4842L3.94417 17.3892C4.35848 17.7208 4.86759 17.912 5.39779 17.9351C5.92799 17.9582 6.45178 17.8119 6.89334 17.5175L7.365 17.2025C7.51219 17.1043 7.68682 17.0554 7.86361 17.0631C8.04041 17.0707 8.21018 17.1344 8.34834 17.245L8.43834 17.3175C8.88161 17.6721 9.43236 17.8653 10 17.8653C10.5677 17.8653 11.1184 17.6721 11.5617 17.3175L11.6525 17.245C11.7908 17.1346 11.9606 17.071 12.1374 17.0635C12.3142 17.056 12.4887 17.105 12.6358 17.2033L13.1075 17.5175C13.549 17.8117 14.0726 17.9579 14.6026 17.9348C15.1327 17.9117 15.6416 17.7206 16.0558 17.3892L17.1875 16.4842C17.273 16.4158 17.3441 16.3312 17.3969 16.2353C17.4497 16.1394 17.4831 16.0341 17.4952 15.9253C17.5072 15.8165 17.4978 15.7063 17.4673 15.6012C17.4368 15.4961 17.3859 15.398 17.3175 15.3125C17.2491 15.227 17.1645 15.1559 17.0686 15.1031C16.9727 15.0503 16.8674 15.0169 16.7586 15.0048C16.6498 14.9928 16.5397 15.0022 16.4345 15.0327C16.3294 15.0632 16.2313 15.1141 16.1458 15.1825L15.0142 16.0883Z" fill="white"/>
</g>
<defs>
<clipPath id="clip0_162_3137">
<rect width="20" height="20" fill="white"/>
</clipPath>
</defs>
</svg>
