<svg width="40" height="40" viewBox="0 0 40 40" fill="none" xmlns="http://www.w3.org/2000/svg">
<path d="M18.9696 39.999C15.7732 39.1264 12.581 38.2381 9.37631 37.3968C8.73307 37.2279 8.04188 37.2415 7.36528 37.1706C7.19535 38.1808 6.69911 38.8376 5.75042 39.093C5.57736 39.1399 5.39075 39.1514 5.20935 39.1524C4.19289 39.1576 3.17643 39.1629 2.15997 39.1524C0.907907 39.1399 0.0290624 38.3059 0.0175947 37.0549C-0.00534075 34.6227 -0.00638327 32.1905 0.0175947 29.7593C0.030105 28.5156 0.930843 27.6764 2.17353 27.6711C3.16392 27.667 4.15432 27.6743 5.14471 27.6691C6.00166 27.6638 6.63865 28.0287 7.09214 28.7533C7.15991 28.8627 7.34964 28.9555 7.48204 28.9545C8.04501 28.9524 8.54229 28.7366 9.0083 28.4259C9.99452 27.7691 11.0662 27.3219 12.237 27.1124C13.905 26.8142 15.5324 27.0373 17.14 27.4897C18.2794 27.8108 19.4116 28.1538 20.549 28.4833C21.6489 28.8023 22.3599 29.5154 22.7018 30.6361C22.8446 30.5725 22.9729 30.5193 23.0969 30.4578C25.1371 29.4486 27.1794 28.4437 29.2155 27.4262C29.9275 27.0707 30.6656 26.9038 31.4454 27.0884C32.5609 27.3521 33.2761 28.059 33.5274 29.1755C33.7849 30.3254 33.3866 31.2814 32.5067 32.0289C32.072 32.399 31.5862 32.7096 31.1202 33.0422C28.5118 34.8989 25.9024 36.7536 23.2929 38.6103C22.339 39.289 21.3007 39.7769 20.1445 40H18.9717L18.9696 39.999ZM7.34964 35.5609C8.36819 35.7048 9.36901 35.7517 10.3167 35.9978C12.606 36.593 14.8683 37.2915 17.1473 37.9264C17.8718 38.1287 18.6078 38.3299 19.3511 38.4154C20.4948 38.5467 21.4477 37.9942 22.3401 37.3635C25.3258 35.2524 28.3033 33.1308 31.2765 31.003C31.5028 30.8414 31.7207 30.6267 31.8583 30.388C32.3514 29.5341 31.779 28.5698 30.7939 28.6011C30.4936 28.6105 30.1756 28.7064 29.9035 28.8398C27.5433 29.9928 25.1903 31.1605 22.8415 32.3364C22.6705 32.4219 22.5058 32.5783 22.4078 32.743C21.7448 33.8595 20.5115 34.4246 19.2417 34.1483C18.7725 34.0462 18.3138 33.895 17.852 33.7616C16.7907 33.454 15.7294 33.1444 14.6692 32.8348C14.3366 32.7378 14.1333 32.5178 14.0916 32.1728C14.0541 31.8631 14.1542 31.5608 14.4377 31.4503C14.6827 31.3554 15.0017 31.3314 15.254 31.3992C16.6729 31.7818 18.0782 32.2103 19.494 32.6044C20.2144 32.8056 20.9327 32.4115 21.1474 31.7318C21.3695 31.0291 21.0088 30.2597 20.2811 30.0439C18.711 29.5779 17.142 29.0963 15.548 28.7293C13.7434 28.3144 11.9607 28.4572 10.3417 29.4476C9.43052 30.0043 8.5204 30.5058 7.42366 30.5464C7.40386 30.5464 7.38405 30.5756 7.35173 30.6017V35.5599L7.34964 35.5609ZM5.77231 33.4092C5.77231 32.228 5.77544 31.0458 5.77023 29.8646C5.76814 29.4111 5.58361 29.2328 5.12699 29.2308C4.1637 29.2266 3.20145 29.2266 2.23816 29.2308C1.7586 29.2328 1.57721 29.4059 1.57616 29.8896C1.57095 32.2405 1.57095 34.5904 1.57616 36.9412C1.57721 37.4271 1.75235 37.5897 2.24442 37.5918C3.19416 37.5959 4.14389 37.5959 5.09363 37.5918C5.60863 37.5897 5.76918 37.4291 5.77127 36.9152C5.77439 35.7465 5.77231 34.5778 5.77127 33.4092H5.77231Z" fill="white"/>
<path d="M9.28045 10.6593C9.46914 11.1107 9.61718 11.5089 9.79962 11.8905C10.2166 12.7579 10.8223 13.4856 11.5312 14.1309C11.6855 14.2706 11.8398 14.4124 11.9764 14.5698C12.2548 14.8888 12.2433 15.3412 11.9629 15.6321C11.6751 15.9303 11.2362 15.9647 10.9037 15.679C9.43787 14.427 8.32862 12.932 7.79485 11.0544C7.75941 10.9314 7.72188 10.8084 7.67705 10.6593C6.66893 10.6593 5.66707 10.6593 4.66521 10.6593C4.52238 10.6593 4.37851 10.6624 4.23569 10.6572C3.72902 10.6395 3.40063 10.3226 3.40897 9.86384C3.41627 9.42702 3.74466 9.10697 4.22839 9.10176C5.1406 9.09133 6.0528 9.09863 6.96501 9.09863C7.10679 9.09863 7.24857 9.09863 7.4748 9.09863C7.4748 8.57633 7.42789 8.07071 7.4821 7.57551C7.76671 4.98172 8.83738 2.77261 11.0319 1.29953C13.7727 -0.539476 16.6229 -0.315334 19.4002 1.27347C20.1936 1.72696 20.8754 2.37541 21.652 2.96861C21.8345 2.80389 22.0649 2.6006 22.2911 2.39313C23.832 0.977391 25.6366 0.136076 27.7372 0.0589299C30.9492 -0.0599175 33.2303 1.45487 34.7305 4.22172C35.4436 5.53634 35.7719 6.95938 35.7782 8.45435C35.7782 8.64931 35.7782 8.84321 35.7782 9.09863C35.9096 9.09863 36.0336 9.09863 36.1577 9.09863C37.0699 9.09863 37.9821 9.0955 38.8943 9.09968C39.4604 9.10176 39.8065 9.41347 39.7961 9.8972C39.7857 10.3643 39.4489 10.6551 38.8985 10.6582C37.882 10.6624 36.8656 10.6687 35.8491 10.653C35.5926 10.6489 35.4946 10.7333 35.4269 10.9783C34.9817 12.5807 34.1352 13.9411 32.9332 15.0963C29.3938 18.4959 25.8638 21.906 22.3297 25.3119C21.7709 25.8509 21.43 25.8478 20.8681 25.3046C19.2939 23.7867 17.7197 22.2678 16.1454 20.7498C16.0704 20.6779 15.9932 20.607 15.9223 20.5309C15.6013 20.1848 15.5908 19.7188 15.8973 19.4123C16.2143 19.0954 16.6521 19.0954 17.017 19.4248C17.2964 19.6781 17.5643 19.945 17.8364 20.2067C19.0822 21.4077 20.328 22.6097 21.5957 23.8326C21.7063 23.7325 21.8116 23.6408 21.9116 23.5438C25.2675 20.3099 28.6244 17.077 31.9782 13.84C32.8852 12.9643 33.5107 11.9176 33.9006 10.6593C33.1135 10.6593 32.365 10.6509 31.6165 10.6697C31.5195 10.6718 31.4069 10.8021 31.335 10.897C30.8012 11.6028 30.2768 12.3148 29.7472 13.0237C29.2082 13.7451 28.6838 13.7399 28.172 13.0102C27.806 12.4889 27.4422 11.9676 27.0481 11.4047C26.604 12.2877 26.1797 13.1332 25.7554 13.9787C25.6022 14.2831 25.3624 14.4687 25.0163 14.4666C24.6868 14.4645 24.4554 14.2862 24.3032 13.9995C24.2667 13.9307 24.2302 13.8619 24.1927 13.7931C23.4056 12.3419 22.6185 10.8918 21.8303 9.44162C21.7636 9.3186 21.6875 9.20184 21.5926 9.04442C20.9129 10.2954 20.2561 11.5048 19.5993 12.7141C19.3637 13.1478 19.1385 13.5888 18.8904 14.0152C18.5276 14.6365 17.802 14.6282 17.4663 13.9922C17.0848 13.2687 16.7282 12.5306 16.3602 11.7998C16.3039 11.6883 16.2382 11.5809 16.1486 11.4203C15.7587 11.9791 15.398 12.4983 15.0352 13.0164C14.5327 13.7316 14.001 13.7431 13.4839 13.0498C12.9543 12.3409 12.4205 11.6351 11.9013 10.9199C11.7669 10.7343 11.6272 10.6457 11.3884 10.652C10.715 10.6687 10.0415 10.6582 9.28045 10.6582V10.6593ZM14.2293 11.438C14.7141 10.7437 15.1509 10.0974 15.6096 9.46664C15.9672 8.97353 16.5948 8.97561 16.9211 9.45621C16.993 9.56255 17.0441 9.68453 17.1025 9.80025C17.4642 10.5165 17.826 11.2327 18.2065 11.9864C18.2972 11.828 18.3629 11.7185 18.4244 11.6069C19.2251 10.1339 20.0278 8.66286 20.8212 7.1856C20.9921 6.86764 21.1996 6.61639 21.5843 6.60701C21.9898 6.59762 22.2119 6.85513 22.3891 7.18456C23.1773 8.64931 23.9717 10.1109 24.7661 11.5725C24.8317 11.6924 24.9058 11.8081 25.0006 11.9676C25.0944 11.7935 25.1622 11.6726 25.2248 11.5496C25.5584 10.8886 25.8805 10.2214 26.2266 9.56672C26.5394 8.9777 27.1837 8.93391 27.5934 9.45934C27.6976 9.59279 27.7894 9.73457 27.8863 9.87322C28.2408 10.3799 28.5942 10.8876 28.9778 11.438C29.473 10.7729 29.9359 10.1641 30.3832 9.54587C30.6083 9.2352 30.8888 9.08821 31.2776 9.09446C32.1117 9.10906 32.9457 9.09967 33.7797 9.09759C33.9163 9.09759 34.0528 9.08612 34.303 9.07361C34.1894 8.19789 34.1696 7.35554 33.959 6.56322C33.4252 4.55637 32.3629 2.88937 30.3581 2.08038C27.9311 1.10145 25.7127 1.66441 23.7048 3.23758C23.3159 3.54199 22.974 3.90479 22.5882 4.21338C21.8991 4.76591 21.2986 4.76174 20.6085 4.20816C20.3041 3.96421 20.0309 3.68273 19.7328 3.43044C17.8521 1.8333 15.7243 1.164 13.3119 1.9094C11.0913 2.59538 9.92368 4.30303 9.27419 6.42039C9.01043 7.28047 8.91765 8.1687 9.02399 9.09759C9.99145 9.09759 10.9287 9.11114 11.8649 9.09133C12.2996 9.08195 12.6061 9.23729 12.8553 9.58757C13.291 10.2006 13.7518 10.7969 14.2283 11.437L14.2293 11.438Z" fill="white"/>
<path d="M13.1523 17.492C13.1701 17.0708 13.5204 16.7393 13.9405 16.7476C14.3763 16.757 14.7172 17.1208 14.6994 17.5597C14.6828 17.983 14.3325 18.3135 13.9134 18.3031C13.4745 18.2916 13.1346 17.9288 13.1534 17.492H13.1523Z" fill="white"/>
</svg>
