<svg width="27" height="20" viewBox="0 0 27 20" fill="none" xmlns="http://www.w3.org/2000/svg">
<g clip-path="url(#clip0_162_3128)">
<path fill-rule="evenodd" clip-rule="evenodd" d="M20.7032 3.26062C18.8816 1.2575 16.2543 0 13.3333 0C10.4124 0 7.7851 1.2575 5.96344 3.26062H20.7032ZM5.96354 16.6573C7.78521 18.6604 10.4125 19.9179 13.3334 19.9179C16.2544 19.9179 18.8817 18.6604 20.7033 16.6573H5.96354ZM4.42333 4.1074C1.98042 4.1074 0 6.08781 0 8.53083V11.3871C0 13.83 1.98042 15.8104 4.42333 15.8104H22.2433C24.6862 15.8104 26.6667 13.83 26.6667 11.3871V8.53083C26.6667 6.08781 24.6862 4.1074 22.2433 4.1074H4.42333ZM26.2117 8.48031C26.2117 6.31646 24.4576 4.5624 22.2939 4.5624H17.8704C15.7067 4.5624 13.9526 6.31646 13.9526 8.48021V11.4502C13.9526 13.6141 12.1985 15.3681 10.0348 15.3681H22.2938C24.4575 15.3681 26.2116 13.614 26.2116 11.4502L26.2117 8.48031ZM10.8438 8.74552V12.9289H12.1075V8.74552H10.8438ZM10.7173 7.4249C10.7173 7.62433 10.7965 7.8156 10.9375 7.95663C11.0786 8.09765 11.2698 8.17688 11.4693 8.17688C11.6687 8.17688 11.86 8.09765 12.001 7.95663C12.142 7.8156 12.2212 7.62433 12.2212 7.4249C12.2212 7.22546 12.142 7.03419 12.001 6.89317C11.86 6.75214 11.6687 6.67292 11.4693 6.67292C11.2698 6.67292 11.0786 6.75214 10.9375 6.89317C10.7965 7.03419 10.7173 7.22546 10.7173 7.4249ZM2.2875 6.82469L3.91781 12.9289H4.96677L6.19281 8.70771L7.41865 12.929H8.50552L10.1106 6.82469H8.88458L7.94948 10.8436L6.78677 6.82469H5.66198L4.49917 10.7425L3.61458 6.82469H2.2875ZM15.9621 6.82469V12.9289H17.3017V10.5403H20.335V9.30177H17.3017V8.06323H20.5371V6.82469H15.9621ZM21.4471 8.74562V12.929H22.7109V8.74562H21.4471ZM21.3333 7.41229C21.3333 7.61173 21.4126 7.803 21.5536 7.94402C21.6946 8.08504 21.8859 8.16427 22.0853 8.16427C22.2847 8.16427 22.476 8.08504 22.617 7.94402C22.7581 7.803 22.8373 7.61173 22.8373 7.41229C22.8373 7.21285 22.7581 7.02159 22.617 6.88056C22.476 6.73954 22.2847 6.66031 22.0853 6.66031C21.8859 6.66031 21.6946 6.73954 21.5536 6.88056C21.4126 7.02159 21.3333 7.21285 21.3333 7.41229Z" fill="white"/>
</g>
<defs>
<clipPath id="clip0_162_3128">
<rect width="26.6667" height="20" fill="white"/>
</clipPath>
</defs>
</svg>
